# xmcd CD database file
#
# Track frame offsets:
#	150
#	14530
#	24530
#	41450
#	54627
#	75547
#	92235
#	103100
#	117412
#	129565
#	143162
#	159335
#	172682
#	183750
#	200595
#	208852
#
# Disc length: 3050 seconds
#
# Revision: 0
# Processed by: cddbd v1.5.2PL0 Copyright (c) Steve Scherf et al.
# Submitted via: CDex 1.70beta2
#
DISCID=d40be810
DTITLE=Emery,Jon - If You Don´t Buy This, I´ll Find ASomebody Who Will
DYEAR=1995
DGENRE=Country
TTITLE0=She Was Bad
TTITLE1=I Let The Freight Train Carry Me On
TTITLE2=I´m The Fool (Who Told You To Go)
TTITLE3=If You Don´t Leave Me
TTITLE4=I Bought Her Roses
TTITLE5=Midnight, Music City U.S.A.
TTITLE6=Rockin´ Rhonda Ain´t Rockin´ No More
TTITLE7=Bill White And Me (In California)
TTITLE8=A Fool In El Paso
TTITLE9=I´m Comin´ Home
TTITLE10=Hold That Train
TTITLE11=Christy-Ann
TTITLE12=Fiddlin´ John Carson
TTITLE13=God Don´t Ever Change
TTITLE14=Chicken Pickin´ Time (The Bear Song)
TTITLE15=Th Man Who Never Lies
EXTD=YEAR: 1995
EXTT0=
EXTT1=
EXTT2=
EXTT3=
EXTT4=
EXTT5=
EXTT6=
EXTT7=
EXTT8=
EXTT9=
EXTT10=
EXTT11=
EXTT12=
EXTT13=
EXTT14=
EXTT15=
PLAYORDER=
